<svg width="53" height="40" xmlns="http://www.w3.org/2000/svg" preserveAspectRatio="xMidYMid meet">

 <g>
  <title>background</title>
  <rect fill="none" id="canvas_background" height="602" width="802" y="-1" x="-1"/>
 </g>
 <g>
  <title>Layer 1</title>
  <g id="svg_1" fill="#000000" transform="translate(0,40) scale(0.10000000149011612,-0.10000000149011612) ">
   <path fill="#ffffff" id="svg_2" d="m241,319c-32,-19 -36,-20 -47,-5c-10,15 -15,13 -43,-13c-64,-60 -70,-162 -13,-219c16,-16 27,-18 59,-13c21,4 47,12 57,18c18,10 18,11 -5,18c-45,14 -69,45 -69,89c0,56 31,103 83,126c23,11 35,20 27,20c-8,0 -30,-10 -49,-21z"/>
   <path fill="#ffffff" id="svg_3" d="m290,299c-24,-10 -24,-12 -6,-22c56,-34 71,-55 70,-95c-1,-22 -10,-54 -20,-71c-15,-26 -16,-33 -5,-40c18,-12 2,-21 -57,-31l-47,-9l53,3c60,4 94,24 130,76c49,73 14,193 -58,197c-19,1 -46,-3 -60,-8z"/>
   <path fill="#ffffff" id="svg_4" d="m224,211c-12,-12 -1,-43 21,-57c23,-15 27,-15 51,0c16,11 24,25 22,38c-2,17 -11,21 -46,22c-24,1 -46,-1 -48,-3z"/>
  </g>
 </g>
</svg>